{
  "accessors": [
    {
      "bufferView": 2,
      "componentType": 5126,
      "count": 973,
      "max": [
        -389.4859924316406,
        -358.3999938964844,
        12.923999786376953
      ],
      "min": [
        -398.3999938964844,
        -370.343994140625,
        0.0
      ],
      "type": "VEC3"
    },
    {
      "bufferView": 2,
      "byteOffset": 11676,
      "componentType": 5126,
      "count": 973,
      "max": [
        1.0,
        1.0,
        1.0
      ],
      "min": [
        -1.0,
        -1.0,
        -0.9999690055847168
      ],
      "type": "VEC3"
    },
    {
      "bufferView": 1,
      "componentType": 5126,
      "count": 973,
      "max": [
        0.9929839968681335,
        0.9951180219650269
      ],
      "min": [
        0.006486999802291393,
        0.005088979844003916
      ],
      "type": "VEC2"
    },
    {
      "bufferView": 0,
      "componentType": 5125,
      "count": 3045,
      "type": "SCALAR"
    },
    {
      "bufferView": 2,
      "byteOffset": 23352,
      "componentType": 5126,
      "count": 167,
      "max": [
        -393.32598876953125,
        -360.85699462890625,
        6.657020092010498
      ],
      "min": [
        -394.593994140625,
        -361.6440124511719,
        5.954249858856201
      ],
      "type": "VEC3"
    },
    {
      "bufferView": 2,
      "byteOffset": 25356,
      "componentType": 5126,
      "count": 167,
      "max": [
        0.9949987530708313,
        0.9957129955291748,
        0.987132728099823
      ],
      "min": [
        -0.9942240118980408,
        -0.9988859295845032,
        -0.9822747111320496
      ],
      "type": "VEC3"
    },
    {
      "bufferView": 1,
      "byteOffset": 7784,
      "componentType": 5126,
      "count": 167,
      "max": [
        0.9994999766349792,
        0.9635000228881836
      ],
      "min": [
        0.0024999999441206455,
        0.045499999076128006
      ],
      "type": "VEC2"
    },
    {
      "bufferView": 0,
      "byteOffset": 12180,
      "componentType": 5125,
      "count": 666,
      "type": "SCALAR"
    },
    {
      "bufferView": 2,
      "byteOffset": 27360,
      "componentType": 5126,
      "count": 1412,
      "max": [
        -392.56201171875,
        -360.38800048828125,
        9.20730972290039
      ],
      "min": [
        -395.19500732421875,
        -364.02301025390625,
        2.765739917755127
      ],
      "type": "VEC3"
    },
    {
      "bufferView": 2,
      "byteOffset": 44304,
      "componentType": 5126,
      "count": 1412,
      "max": [
        0.9998760223388672,
        0.9962393045425415,
        0.9969143867492676
      ],
      "min": [
        -0.9984536170959473,
        -1.0,
        -0.9991950392723083
      ],
      "type": "VEC3"
    },
    {
      "bufferView": 1,
      "byteOffset": 9120,
      "componentType": 5126,
      "count": 1412,
      "max": [
        0.9983000159263611,
        0.9477999806404114
      ],
      "min": [
        0.0010000000474974513,
        0.006699979770928621
      ],
      "type": "VEC2"
    },
    {
      "bufferView": 0,
      "byteOffset": 14844,
      "componentType": 5125,
      "count": 8031,
      "type": "SCALAR"
    },
    {
      "bufferView": 2,
      "byteOffset": 61248,
      "componentType": 5126,
      "count": 32,
      "max": [
        -393.22100830078125,
        -361.0610046386719,
        7.5125298500061035
      ],
      "min": [
        -394.5459899902344,
        -361.2380065917969,
        7.189519882202148
      ],
      "type": "VEC3"
    },
    {
      "bufferView": 2,
      "byteOffset": 61632,
      "componentType": 5126,
      "count": 32,
      "max": [
        0.8050236701965332,
        0.9799999594688416,
        0.6320607662200928
      ],
      "min": [
        -0.7956212759017944,
        0.5908074378967285,
        -0.2840997874736786
      ],
      "type": "VEC3"
    },
    {
      "bufferView": 1,
      "byteOffset": 20416,
      "componentType": 5126,
      "count": 32,
      "max": [
        0.9609000086784363,
        0.7590000033378601
      ],
      "min": [
        0.039799999445676804,
        0.17759999632835388
      ],
      "type": "VEC2"
    },
    {
      "bufferView": 0,
      "byteOffset": 46968,
      "componentType": 5125,
      "count": 84,
      "type": "SCALAR"
    }
  ],
  "asset": {
    "extras": {
      "author": "Toilet (https://sketchfab.com/ToiletFax)",
      "license": "CC-BY-4.0 (http://creativecommons.org/licenses/by/4.0/)",
      "source": "https://sketchfab.com/3d-models/first-skibidi-toilet-f9d05116be26460ca12d0e0ecfa315ee",
      "title": "First Skibidi Toilet"
    },
    "generator": "Sketchfab-16.3.0",
    "version": "2.0"
  },
  "bufferViews": [
    {
      "buffer": 0,
      "byteLength": 47304,
      "name": "floatBufferViews",
      "target": 34963
    },
    {
      "buffer": 0,
      "byteLength": 20672,
      "byteOffset": 47304,
      "byteStride": 8,
      "name": "floatBufferViews",
      "target": 34962
    },
    {
      "buffer": 0,
      "byteLength": 62016,
      "byteOffset": 67976,
      "byteStride": 12,
      "name": "floatBufferViews",
      "target": 34962
    }
  ],
  "buffers": [
    {
      "byteLength": 129992,
      "uri": "scene.bin"
    }
  ],
  "images": [
    {
      "uri": "textures/Object01Mtl_baseColor.png"
    },
    {
      "uri": "textures/Object11Mtl_baseColor.png"
    },
    {
      "uri": "textures/Object41Mtl_baseColor.png"
    },
    {
      "uri": "textures/Object51Mtl_baseColor.png"
    }
  ],
  "materials": [
    {
      "doubleSided": true,
      "name": "Object01Mtl",
      "pbrMetallicRoughness": {
        "baseColorTexture": {
          "index": 0
        },
        "metallicFactor": 0.0,
        "roughnessFactor": 0.6
      }
    },
    {
      "doubleSided": true,
      "name": "Object11Mtl",
      "pbrMetallicRoughness": {
        "baseColorTexture": {
          "index": 1
        },
        "metallicFactor": 0.0,
        "roughnessFactor": 0.6
      }
    },
    {
      "doubleSided": true,
      "name": "Object41Mtl",
      "pbrMetallicRoughness": {
        "baseColorTexture": {
          "index": 2
        },
        "metallicFactor": 0.0,
        "roughnessFactor": 0.6
      }
    },
    {
      "doubleSided": true,
      "name": "Object51Mtl",
      "pbrMetallicRoughness": {
        "baseColorTexture": {
          "index": 3
        },
        "metallicFactor": 0.0,
        "roughnessFactor": 0.6
      }
    }
  ],
  "meshes": [
    {
      "name": "Object_0",
      "primitives": [
        {
          "attributes": {
            "NORMAL": 1,
            "POSITION": 0,
            "TEXCOORD_0": 2
          },
          "indices": 3,
          "material": 0,
          "mode": 4
        }
      ]
    },
    {
      "name": "Object_1",
      "primitives": [
        {
          "attributes": {
            "NORMAL": 5,
            "POSITION": 4,
            "TEXCOORD_0": 6
          },
          "indices": 7,
          "material": 2,
          "mode": 4
        }
      ]
    },
    {
      "name": "Object_2",
      "primitives": [
        {
          "attributes": {
            "NORMAL": 9,
            "POSITION": 8,
            "TEXCOORD_0": 10
          },
          "indices": 11,
          "material": 1,
          "mode": 4
        }
      ]
    },
    {
      "name": "Object_3",
      "primitives": [
        {
          "attributes": {
            "NORMAL": 13,
            "POSITION": 12,
            "TEXCOORD_0": 14
          },
          "indices": 15,
          "material": 3,
          "mode": 4
        }
      ]
    }
  ],
  "nodes": [
    {
      "children": [
        1
      ],
      "matrix": [
        1.0,
        0.0,
        0.0,
        0.0,
        0.0,
        2.220446049250313e-16,
        -1.0,
        0.0,
        0.0,
        1.0,
        2.220446049250313e-16,
        0.0,
        0.0,
        0.0,
        0.0,
        1.0
      ],
      "name": "Sketchfab_model"
    },
    {
      "children": [
        2,
        3,
        4,
        5
      ],
      "name": "3df11b4769334cf4a852e11cc7ccf0f5.obj.cleaner.materialmerger.gles"
    },
    {
      "mesh": 0,
      "name": "Object_2"
    },
    {
      "mesh": 1,
      "name": "Object_3"
    },
    {
      "mesh": 2,
      "name": "Object_4"
    },
    {
      "mesh": 3,
      "name": "Object_5"
    }
  ],
  "samplers": [
    {
      "magFilter": 9729,
      "minFilter": 9987,
      "wrapS": 10497,
      "wrapT": 10497
    }
  ],
  "scene": 0,
  "scenes": [
    {
      "name": "Sketchfab_Scene",
      "nodes": [
        0
      ]
    }
  ],
  "textures": [
    {
      "sampler": 0,
      "source": 0
    },
    {
      "sampler": 0,
      "source": 1
    },
    {
      "sampler": 0,
      "source": 2
    },
    {
      "sampler": 0,
      "source": 3
    }
  ]
}
