{
  "accessors": [
    {
      "bufferView": 2,
      "componentType": 5126,
      "count": 29090,
      "max": [
        1.223310112953186,
        6.500000953674316,
        1.1772243976593018
      ],
      "min": [
        -1.2396962642669678,
        -1.010532021522522,
        -1.1877293586730957
      ],
      "type": "VEC3"
    },
    {
      "bufferView": 2,
      "byteOffset": 349080,
      "componentType": 5126,
      "count": 29090,
      "max": [
        1.0,
        1.0,
        1.0
      ],
      "min": [
        -1.0,
        -1.0,
        -1.0
      ],
      "type": "VEC3"
    },
    {
      "bufferView": 1,
      "componentType": 5126,
      "count": 29090,
      "max": [
        1.0000001192092896,
        1.000000238418579
      ],
      "min": [
        0.0,
        0.0
      ],
      "type": "VEC2"
    },
    {
      "bufferView": 0,
      "componentType": 5125,
      "count": 132096,
      "type": "SCALAR"
    },
    {
      "bufferView": 2,
      "byteOffset": 698160,
      "componentType": 5126,
      "count": 3544,
      "max": [
        0.9814621806144714,
        0.9348846673965454,
        0.9814621806144714
      ],
      "min": [
        -0.9814621210098267,
        -1.0000003576278687,
        -0.9814621806144714
      ],
      "type": "VEC3"
    },
    {
      "bufferView": 2,
      "byteOffset": 740688,
      "componentType": 5126,
      "count": 3544,
      "max": [
        0.9998687505722046,
        1.0,
        0.9998687505722046
      ],
      "min": [
        -0.9998687505722046,
        -1.0,
        -0.9998687505722046
      ],
      "type": "VEC3"
    },
    {
      "bufferView": 1,
      "byteOffset": 232720,
      "componentType": 5126,
      "count": 3544,
      "max": [
        1.0000001192092896,
        1.0000001192092896
      ],
      "min": [
        0.0,
        0.010000006295740604
      ],
      "type": "VEC2"
    },
    {
      "bufferView": 0,
      "byteOffset": 528384,
      "componentType": 5125,
      "count": 16896,
      "type": "SCALAR"
    }
  ],
  "asset": {
    "extras": {
      "author": "Tiago Oliveira (https://sketchfab.com/tiago_oliveira)",
      "license": "CC-BY-4.0 (http://creativecommons.org/licenses/by/4.0/)",
      "source": "https://sketchfab.com/3d-models/milk-carton-fb9e00da31c44bd4ad5e9c574df0503a",
      "title": "Milk Carton"
    },
    "generator": "Sketchfab-14.77.0",
    "version": "2.0"
  },
  "bufferViews": [
    {
      "buffer": 0,
      "byteLength": 595968,
      "name": "floatBufferViews",
      "target": 34963
    },
    {
      "buffer": 0,
      "byteLength": 261072,
      "byteOffset": 595968,
      "byteStride": 8,
      "name": "floatBufferViews",
      "target": 34962
    },
    {
      "buffer": 0,
      "byteLength": 783216,
      "byteOffset": 857040,
      "byteStride": 12,
      "name": "floatBufferViews",
      "target": 34962
    }
  ],
  "buffers": [
    {
      "byteLength": 1640256,
      "uri": "scene.bin"
    }
  ],
  "materials": [
    {
      "doubleSided": true,
      "name": "material_0",
      "pbrMetallicRoughness": {
        "metallicFactor": 0.0,
        "roughnessFactor": 0.6
      }
    },
    {
      "doubleSided": true,
      "name": "Material.001",
      "pbrMetallicRoughness": {
        "baseColorFactor": [
          0.228248,
          0.333787,
          0.8,
          1.0
        ],
        "roughnessFactor": 0.5
      }
    }
  ],
  "meshes": [
    {
      "name": "Object_0",
      "primitives": [
        {
          "attributes": {
            "NORMAL": 1,
            "POSITION": 0,
            "TEXCOORD_0": 2
          },
          "indices": 3,
          "material": 1,
          "mode": 4
        }
      ]
    },
    {
      "name": "Object_1",
      "primitives": [
        {
          "attributes": {
            "NORMAL": 5,
            "POSITION": 4,
            "TEXCOORD_0": 6
          },
          "indices": 7,
          "material": 0,
          "mode": 4
        }
      ]
    }
  ],
  "nodes": [
    {
      "children": [
        1
      ],
      "matrix": [
        1.0,
        0.0,
        0.0,
        0.0,
        0.0,
        2.220446049250313e-16,
        -1.0,
        0.0,
        0.0,
        1.0,
        2.220446049250313e-16,
        0.0,
        0.0,
        0.0,
        0.0,
        1.0
      ],
      "name": "Sketchfab_model"
    },
    {
      "children": [
        2
      ],
      "name": "root"
    },
    {
      "children": [
        3,
        5
      ],
      "matrix": [
        1.0,
        0.0,
        0.0,
        0.0,
        0.0,
        2.220446049250313e-16,
        1.0,
        0.0,
        0.0,
        -1.0,
        2.220446049250313e-16,
        0.0,
        0.0,
        0.0,
        0.0,
        1.0
      ],
      "name": "GLTF_SceneRootNode"
    },
    {
      "children": [
        4
      ],
      "matrix": [
        1.0,
        0.0,
        0.0,
        0.0,
        0.0,
        1.0,
        0.0,
        0.0,
        0.0,
        0.0,
        1.0,
        0.0,
        0.0,
        0.0,
        3.030219793319702,
        1.0
      ],
      "name": "Cube.002_2"
    },
    {
      "mesh": 0,
      "name": "Object_4"
    },
    {
      "children": [
        6
      ],
      "matrix": [
        0.20433168039440747,
        0.20433170705310363,
        0.0,
        0.0,
        -0.05744375589726185,
        0.057443748402704796,
        0.0,
        0.0,
        0.0,
        0.0,
        0.28896859288215637,
        0.0,
        -0.575308620929718,
        5.509005546569824,
        2.999666213989258,
        1.0
      ],
      "name": "Cylinder_3"
    },
    {
      "mesh": 1,
      "name": "Object_6"
    }
  ],
  "scene": 0,
  "scenes": [
    {
      "name": "Sketchfab_Scene",
      "nodes": [
        0
      ]
    }
  ]
}
