{
  "accessors": [
    {
      "bufferView": 2,
      "componentType": 5126,
      "count": 27,
      "max": [
        0.20475099980831146,
        0.8806599974632263,
        1.8593800067901611
      ],
      "min": [
        -0.17645999789237976,
        -1.4131920337677002,
        0.06782100349664688
      ],
      "type": "VEC3"
    },
    {
      "bufferView": 2,
      "byteOffset": 324,
      "componentType": 5126,
      "count": 27,
      "max": [
        0.9014304280281067,
        0.9477802515029907,
        0.048750992864370346
      ],
      "min": [
        -0.9603103399276733,
        -0.8825491070747375,
        -0.7885282039642334
      ],
      "type": "VEC3"
    },
    {
      "bufferView": 3,
      "componentType": 5126,
      "count": 27,
      "max": [
        0.7936414480209351,
        0.9087557196617126,
        0.6062785983085632,
        1.0
      ],
      "min": [
        -0.9847241640090942,
        -0.9350869059562683,
        -0.9749717116355896,
        -1.0
      ],
      "type": "VEC4"
    },
    {
      "bufferView": 1,
      "componentType": 5126,
      "count": 27,
      "max": [
        0.9111329913139343,
        0.953948974609375
      ],
      "min": [
        0.023437999188899994,
        0.20214800536632538
      ],
      "type": "VEC2"
    },
    {
      "bufferView": 0,
      "componentType": 5125,
      "count": 27,
      "type": "SCALAR"
    },
    {
      "bufferView": 2,
      "byteOffset": 648,
      "componentType": 5126,
      "count": 12783,
      "max": [
        0.30709800124168396,
        0.8841599822044373,
        1.8773610591888428
      ],
      "min": [
        -0.3064199984073639,
        -1.6443120241165161,
        -0.004573000129312277
      ],
      "type": "VEC3"
    },
    {
      "bufferView": 2,
      "byteOffset": 154044,
      "componentType": 5126,
      "count": 12783,
      "max": [
        0.9999920129776001,
        0.9999479651451111,
        0.9999085068702698
      ],
      "min": [
        -0.9999640583992004,
        -0.9997754096984863,
        -0.9999938011169434
      ],
      "type": "VEC3"
    },
    {
      "bufferView": 3,
      "byteOffset": 432,
      "componentType": 5126,
      "count": 12783,
      "max": [
        1.0,
        0.9999430179595947,
        0.9999081492424011,
        1.0
      ],
      "min": [
        -1.0,
        -0.999934196472168,
        -0.999968409538269,
        -1.0
      ],
      "type": "VEC4"
    },
    {
      "bufferView": 1,
      "byteOffset": 216,
      "componentType": 5126,
      "count": 12783,
      "max": [
        0.9975590109825134,
        0.9926720261573792
      ],
      "min": [
        0.0019490000559017062,
        0.0019529999699443579
      ],
      "type": "VEC2"
    },
    {
      "bufferView": 0,
      "byteOffset": 108,
      "componentType": 5125,
      "count": 71565,
      "type": "SCALAR"
    }
  ],
  "asset": {
    "extras": {
      "author": "ROAD Software (https://sketchfab.com/Redwthr)",
      "license": "CC-BY-4.0 (http://creativecommons.org/licenses/by/4.0/)",
      "source": "https://sketchfab.com/3d-models/goat-sim-brown-goat-a116571cddad4b0d97062f107ee833c7",
      "title": "Goat sim brown goat"
    },
    "generator": "Sketchfab-13.68.0",
    "version": "2.0"
  },
  "bufferViews": [
    {
      "buffer": 0,
      "byteLength": 286368,
      "name": "floatBufferViews",
      "target": 34963
    },
    {
      "buffer": 0,
      "byteLength": 102480,
      "byteOffset": 286368,
      "byteStride": 8,
      "name": "floatBufferViews",
      "target": 34962
    },
    {
      "buffer": 0,
      "byteLength": 307440,
      "byteOffset": 388848,
      "byteStride": 12,
      "name": "floatBufferViews",
      "target": 34962
    },
    {
      "buffer": 0,
      "byteLength": 204960,
      "byteOffset": 696288,
      "byteStride": 16,
      "name": "floatBufferViews",
      "target": 34962
    }
  ],
  "buffers": [
    {
      "byteLength": 901248,
      "uri": "scene.bin"
    }
  ],
  "images": [
    {
      "uri": "textures/goat_baseColor.png"
    },
    {
      "uri": "textures/goat_metallicRoughness.png"
    },
    {
      "uri": "textures/goat_normal.png"
    }
  ],
  "materials": [
    {
      "doubleSided": true,
      "name": "goat",
      "normalTexture": {
        "index": 2
      },
      "pbrMetallicRoughness": {
        "baseColorTexture": {
          "index": 0
        },
        "metallicRoughnessTexture": {
          "index": 1
        }
      }
    }
  ],
  "meshes": [
    {
      "name": "Object_0",
      "primitives": [
        {
          "attributes": {
            "NORMAL": 1,
            "POSITION": 0,
            "TANGENT": 2,
            "TEXCOORD_0": 3
          },
          "indices": 4,
          "material": 0,
          "mode": 4
        }
      ]
    },
    {
      "name": "Object_1",
      "primitives": [
        {
          "attributes": {
            "NORMAL": 6,
            "POSITION": 5,
            "TANGENT": 7,
            "TEXCOORD_0": 8
          },
          "indices": 9,
          "material": 0,
          "mode": 4
        }
      ]
    }
  ],
  "nodes": [
    {
      "children": [
        1
      ],
      "matrix": [
        1.0,
        0.0,
        0.0,
        0.0,
        0.0,
        2.220446049250313e-16,
        -1.0,
        0.0,
        0.0,
        1.0,
        2.220446049250313e-16,
        0.0,
        0.0,
        0.0,
        0.0,
        1.0
      ],
      "name": "Sketchfab_model"
    },
    {
      "children": [
        2,
        3
      ],
      "name": "Goat.obj.cleaner.materialmerger.gles"
    },
    {
      "mesh": 0,
      "name": "Object_2"
    },
    {
      "mesh": 1,
      "name": "Object_3"
    }
  ],
  "samplers": [
    {
      "magFilter": 9729,
      "minFilter": 9987,
      "wrapS": 10497,
      "wrapT": 10497
    }
  ],
  "scene": 0,
  "scenes": [
    {
      "name": "Sketchfab_Scene",
      "nodes": [
        0
      ]
    }
  ],
  "textures": [
    {
      "sampler": 0,
      "source": 0
    },
    {
      "sampler": 0,
      "source": 1
    },
    {
      "sampler": 0,
      "source": 2
    }
  ]
}
