{
  "accessors": [
    {
      "bufferView": 2,
      "componentType": 5126,
      "count": 1408,
      "max": [
        7.128121852874756,
        4.59647798538208,
        9.627265930175781
      ],
      "min": [
        -6.309942722320557,
        -4.620182514190674,
        -15.438993453979492
      ],
      "type": "VEC3"
    },
    {
      "bufferView": 2,
      "byteOffset": 16896,
      "componentType": 5126,
      "count": 1408,
      "max": [
        0.9999982118606567,
        0.9999998807907104,
        0.9992498159408569
      ],
      "min": [
        -0.9999376535415649,
        -0.9999998807907104,
        -0.9999970197677612
      ],
      "type": "VEC3"
    },
    {
      "bufferView": 1,
      "componentType": 5126,
      "count": 1408,
      "max": [
        0.3711862564086914,
        0.48568394780158997
      ],
      "min": [
        0.2724943161010742,
        0.34757867455482483
      ],
      "type": "VEC2"
    },
    {
      "bufferView": 0,
      "componentType": 5125,
      "count": 5856,
      "type": "SCALAR"
    },
    {
      "bufferView": 2,
      "byteOffset": 33792,
      "componentType": 5126,
      "count": 1326,
      "max": [
        6.721878528594971,
        4.178133487701416,
        9.210148811340332
      ],
      "min": [
        -6.042525768280029,
        -4.394498825073242,
        -15.167282104492188
      ],
      "type": "VEC3"
    },
    {
      "bufferView": 2,
      "byteOffset": 49704,
      "componentType": 5126,
      "count": 1326,
      "max": [
        0.9999970197677612,
        1.0,
        0.9999971389770508
      ],
      "min": [
        -1.0,
        -1.0,
        -0.9997971057891846
      ],
      "type": "VEC3"
    },
    {
      "bufferView": 1,
      "byteOffset": 11264,
      "componentType": 5126,
      "count": 1326,
      "max": [
        0.3711862564086914,
        0.48568394780158997
      ],
      "min": [
        0.2724943161010742,
        0.3471793830394745
      ],
      "type": "VEC2"
    },
    {
      "bufferView": 0,
      "byteOffset": 23424,
      "componentType": 5125,
      "count": 6168,
      "type": "SCALAR"
    }
  ],
  "asset": {
    "extras": {
      "author": "axaloty.gamer (https://sketchfab.com/loty_3dmodels)",
      "license": "CC-BY-4.0 (http://creativecommons.org/licenses/by/4.0/)",
      "source": "https://sketchfab.com/3d-models/amogus-d595bffbc7984c348eeb16245bc8c882",
      "title": "amogus"
    },
    "generator": "Sketchfab-12.68.0",
    "version": "2.0"
  },
  "bufferViews": [
    {
      "buffer": 0,
      "byteLength": 48096,
      "name": "floatBufferViews",
      "target": 34963
    },
    {
      "buffer": 0,
      "byteLength": 21872,
      "byteOffset": 48096,
      "byteStride": 8,
      "name": "floatBufferViews",
      "target": 34962
    },
    {
      "buffer": 0,
      "byteLength": 65616,
      "byteOffset": 69968,
      "byteStride": 12,
      "name": "floatBufferViews",
      "target": 34962
    }
  ],
  "buffers": [
    {
      "byteLength": 135584,
      "uri": "scene.bin"
    }
  ],
  "images": [
    {
      "uri": "textures/amog_baseColor.jpeg"
    }
  ],
  "materials": [
    {
      "name": "Material.005",
      "pbrMetallicRoughness": {
        "baseColorFactor": [
          0.0,
          0.0,
          0.0,
          1.0
        ],
        "metallicFactor": 0.0
      }
    },
    {
      "doubleSided": true,
      "name": "amog",
      "pbrMetallicRoughness": {
        "baseColorTexture": {
          "index": 0
        },
        "metallicFactor": 0.0,
        "roughnessFactor": 0.8211145618000169
      }
    }
  ],
  "meshes": [
    {
      "name": "amogus_Material.005_0",
      "primitives": [
        {
          "attributes": {
            "NORMAL": 1,
            "POSITION": 0,
            "TEXCOORD_0": 2
          },
          "indices": 3,
          "material": 0,
          "mode": 4
        }
      ]
    },
    {
      "name": "amogus_amog_0",
      "primitives": [
        {
          "attributes": {
            "NORMAL": 5,
            "POSITION": 4,
            "TEXCOORD_0": 6
          },
          "indices": 7,
          "material": 1,
          "mode": 4
        }
      ]
    }
  ],
  "nodes": [
    {
      "children": [
        1
      ],
      "matrix": [
        1.0,
        0.0,
        0.0,
        0.0,
        0.0,
        2.220446049250313e-16,
        -1.0,
        0.0,
        0.0,
        1.0,
        2.220446049250313e-16,
        0.0,
        0.0,
        0.0,
        0.0,
        1.0
      ],
      "name": "Sketchfab_model"
    },
    {
      "children": [
        2
      ],
      "matrix": [
        1.0,
        0.0,
        0.0,
        0.0,
        0.0,
        0.0,
        1.0,
        0.0,
        0.0,
        -1.0,
        0.0,
        0.0,
        0.0,
        0.0,
        0.0,
        1.0
      ],
      "name": "cc227645dde34c31b3b8f69a41ddf94e.fbx"
    },
    {
      "children": [
        3
      ],
      "name": "RootNode"
    },
    {
      "children": [
        4,
        5
      ],
      "matrix": [
        5.625277519226074,
        0.0,
        0.0,
        0.0,
        0.0,
        -9.16474035199908e-07,
        -5.625277519226,
        0.0,
        0.0,
        5.625277519226,
        -9.16474035199908e-07,
        0.0,
        9.090067863464355,
        45.45033264160156,
        6.106653472670587e-06,
        1.0
      ],
      "name": "amogus"
    },
    {
      "mesh": 0,
      "name": "amogus_Material.005_0"
    },
    {
      "mesh": 1,
      "name": "amogus_amog_0"
    }
  ],
  "samplers": [
    {
      "magFilter": 9729,
      "minFilter": 9987,
      "wrapS": 10497,
      "wrapT": 10497
    }
  ],
  "scene": 0,
  "scenes": [
    {
      "name": "Sketchfab_Scene",
      "nodes": [
        0
      ]
    }
  ],
  "textures": [
    {
      "sampler": 0,
      "source": 0
    }
  ]
}
