{
  "accessors": [
    {
      "bufferView": 2,
      "componentType": 5126,
      "count": 5268,
      "max": [
        2.440561294555664,
        5.048694133758545,
        2.4312024116516113
      ],
      "min": [
        -2.4405617713928223,
        -2.2351741790771484e-07,
        -2.3063859939575195
      ],
      "type": "VEC3"
    },
    {
      "bufferView": 2,
      "byteOffset": 63216,
      "componentType": 5126,
      "count": 5268,
      "max": [
        0.9999961853027344,
        1.0,
        0.9999954700469971
      ],
      "min": [
        -0.9999961853027344,
        -1.0,
        -0.9999954700469971
      ],
      "type": "VEC3"
    },
    {
      "bufferView": 1,
      "componentType": 5126,
      "count": 5268,
      "max": [
        0.9192100167274475,
        0.5874029397964478
      ],
      "min": [
        0.14735053479671478,
        0.0029248083010315895
      ],
      "type": "VEC2"
    },
    {
      "bufferView": 1,
      "byteOffset": 42144,
      "componentType": 5126,
      "count": 5268,
      "max": [
        0.9192100167274475,
        0.5874029397964478
      ],
      "min": [
        0.14735053479671478,
        0.0029248083010315895
      ],
      "type": "VEC2"
    },
    {
      "bufferView": 0,
      "componentType": 5125,
      "count": 29760,
      "type": "SCALAR"
    },
    {
      "bufferView": 2,
      "byteOffset": 126432,
      "componentType": 5126,
      "count": 441,
      "max": [
        4.818413734436035,
        9.440299034118652,
        0.16729727387428284
      ],
      "min": [
        -5.15778923034668,
        8.952230453491211,
        -0.16729728877544403
      ],
      "type": "VEC3"
    },
    {
      "bufferView": 2,
      "byteOffset": 131724,
      "componentType": 5126,
      "count": 441,
      "max": [
        1.0,
        0.9999999403953552,
        1.0
      ],
      "min": [
        -1.0,
        -1.0,
        -1.0
      ],
      "type": "VEC3"
    },
    {
      "bufferView": 1,
      "byteOffset": 84288,
      "componentType": 5126,
      "count": 441,
      "max": [
        0.9576216340065002,
        0.8825632333755493
      ],
      "min": [
        0.03848273307085037,
        0.0019920021295547485
      ],
      "type": "VEC2"
    },
    {
      "bufferView": 1,
      "byteOffset": 87816,
      "componentType": 5126,
      "count": 441,
      "max": [
        0.9576216340065002,
        0.8825632333755493
      ],
      "min": [
        0.03848273307085037,
        0.0019920021295547485
      ],
      "type": "VEC2"
    },
    {
      "bufferView": 1,
      "byteOffset": 91344,
      "componentType": 5126,
      "count": 441,
      "max": [
        0.9576216340065002,
        0.8825632333755493
      ],
      "min": [
        0.03848273307085037,
        0.0019920021295547485
      ],
      "type": "VEC2"
    },
    {
      "bufferView": 0,
      "byteOffset": 119040,
      "componentType": 5125,
      "count": 2280,
      "type": "SCALAR"
    },
    {
      "bufferView": 2,
      "byteOffset": 137016,
      "componentType": 5126,
      "count": 409,
      "max": [
        4.724539279937744,
        10.489797592163086,
        0.3816584050655365
      ],
      "min": [
        4.004871845245361,
        8.430312156677246,
        -0.3816584050655365
      ],
      "type": "VEC3"
    },
    {
      "bufferView": 2,
      "byteOffset": 141924,
      "componentType": 5126,
      "count": 409,
      "max": [
        0.9999880790710449,
        0.9929742813110352,
        1.0
      ],
      "min": [
        -0.9998919367790222,
        -1.0,
        -1.0
      ],
      "type": "VEC3"
    },
    {
      "bufferView": 3,
      "componentType": 5126,
      "count": 409,
      "max": [
        0.9999998211860657,
        0.9098559617996216,
        0.9963854551315308,
        1.0
      ],
      "min": [
        -0.9943660497665405,
        -0.8971614241600037,
        -0.9994765520095825,
        1.0
      ],
      "type": "VEC4"
    },
    {
      "bufferView": 1,
      "byteOffset": 94872,
      "componentType": 5126,
      "count": 409,
      "max": [
        0.8213508725166321,
        0.9980078339576721
      ],
      "min": [
        0.361869215965271,
        0.5239549279212952
      ],
      "type": "VEC2"
    },
    {
      "bufferView": 1,
      "byteOffset": 98144,
      "componentType": 5126,
      "count": 409,
      "max": [
        0.8213508725166321,
        0.9980078339576721
      ],
      "min": [
        0.361869215965271,
        0.5239549279212952
      ],
      "type": "VEC2"
    },
    {
      "bufferView": 1,
      "byteOffset": 101416,
      "componentType": 5126,
      "count": 409,
      "max": [
        0.8213508725166321,
        0.9980078339576721
      ],
      "min": [
        0.361869215965271,
        0.5239549279212952
      ],
      "type": "VEC2"
    },
    {
      "bufferView": 0,
      "byteOffset": 128160,
      "componentType": 5125,
      "count": 2160,
      "type": "SCALAR"
    },
    {
      "bufferView": 2,
      "byteOffset": 146832,
      "componentType": 5126,
      "count": 121,
      "max": [
        0.5,
        1.1102230246251565e-16,
        0.5
      ],
      "min": [
        -0.5,
        -1.1102230246251565e-16,
        -0.5
      ],
      "type": "VEC3"
    },
    {
      "bufferView": 2,
      "byteOffset": 148284,
      "componentType": 5126,
      "count": 121,
      "max": [
        0.0,
        1.0,
        2.220446578645905e-16
      ],
      "min": [
        0.0,
        1.0,
        2.220445519854721e-16
      ],
      "type": "VEC3"
    },
    {
      "bufferView": 1,
      "byteOffset": 104688,
      "componentType": 5126,
      "count": 121,
      "max": [
        1.0,
        1.0
      ],
      "min": [
        0.0,
        0.0
      ],
      "type": "VEC2"
    },
    {
      "bufferView": 0,
      "byteOffset": 136800,
      "componentType": 5125,
      "count": 600,
      "type": "SCALAR"
    }
  ],
  "asset": {
    "extras": {
      "author": "andreas (https://sketchfab.com/andreasable)",
      "license": "CC-BY-4.0 (http://creativecommons.org/licenses/by/4.0/)",
      "source": "https://sketchfab.com/3d-models/getting-over-it-b1330ff9511f40e5abe2e97cb38e10c6",
      "title": "Getting over it"
    },
    "generator": "Sketchfab-12.68.0",
    "version": "2.0"
  },
  "bufferViews": [
    {
      "buffer": 0,
      "byteLength": 139200,
      "name": "floatBufferViews",
      "target": 34963
    },
    {
      "buffer": 0,
      "byteLength": 105656,
      "byteOffset": 139200,
      "byteStride": 8,
      "name": "floatBufferViews",
      "target": 34962
    },
    {
      "buffer": 0,
      "byteLength": 149736,
      "byteOffset": 244856,
      "byteStride": 12,
      "name": "floatBufferViews",
      "target": 34962
    },
    {
      "buffer": 0,
      "byteLength": 6544,
      "byteOffset": 394592,
      "byteStride": 16,
      "name": "floatBufferViews",
      "target": 34962
    }
  ],
  "buffers": [
    {
      "byteLength": 401136,
      "uri": "scene.bin"
    }
  ],
  "extensionsRequired": [
    "KHR_materials_pbrSpecularGlossiness"
  ],
  "extensionsUsed": [
    "KHR_materials_pbrSpecularGlossiness"
  ],
  "images": [
    {
      "uri": "textures/blinn1_diffuse.jpeg"
    },
    {
      "uri": "textures/blinn2_specularGlossiness.jpeg"
    },
    {
      "uri": "textures/phong1_normal.png"
    }
  ],
  "materials": [
    {
      "doubleSided": true,
      "extensions": {
        "KHR_materials_pbrSpecularGlossiness": {
          "diffuseFactor": [
            1.0,
            1.0,
            1.0,
            1.0
          ],
          "diffuseTexture": {
            "index": 0
          },
          "glossinessFactor": 0.7895454638,
          "specularFactor": [
            0.05,
            0.05,
            0.05
          ]
        }
      },
      "name": "blinn1"
    },
    {
      "doubleSided": true,
      "extensions": {
        "KHR_materials_pbrSpecularGlossiness": {
          "diffuseFactor": [
            1.0,
            1.0,
            1.0,
            1.0
          ],
          "diffuseTexture": {
            "index": 0
          },
          "glossinessFactor": 0.7168181911,
          "specularFactor": [
            0.05,
            0.05,
            0.05
          ],
          "specularGlossinessTexture": {
            "index": 1
          }
        }
      },
      "name": "blinn2"
    },
    {
      "doubleSided": true,
      "extensions": {
        "KHR_materials_pbrSpecularGlossiness": {
          "diffuseFactor": [
            1.0,
            1.0,
            1.0,
            1.0
          ],
          "diffuseTexture": {
            "index": 0
          },
          "glossinessFactor": 0.5956060699,
          "specularFactor": [
            0.05,
            0.05,
            0.05
          ],
          "specularGlossinessTexture": {
            "index": 1
          }
        }
      },
      "name": "phong1",
      "normalTexture": {
        "index": 2
      }
    },
    {
      "alphaMode": "BLEND",
      "doubleSided": true,
      "extensions": {
        "KHR_materials_pbrSpecularGlossiness": {
          "diffuseFactor": [
            0.1895454638,
            0.1895454638,
            0.1895454638,
            0.0
          ],
          "glossinessFactor": 0.910757585,
          "specularFactor": [
            0.05,
            0.05,
            0.05
          ]
        }
      },
      "name": "blinn3"
    }
  ],
  "meshes": [
    {
      "name": "pCylinder2_blinn1_0",
      "primitives": [
        {
          "attributes": {
            "NORMAL": 1,
            "POSITION": 0,
            "TEXCOORD_0": 2,
            "TEXCOORD_1": 3
          },
          "indices": 4,
          "material": 0,
          "mode": 4
        }
      ]
    },
    {
      "name": "polySurface3_blinn2_0",
      "primitives": [
        {
          "attributes": {
            "NORMAL": 6,
            "POSITION": 5,
            "TEXCOORD_0": 7,
            "TEXCOORD_1": 8,
            "TEXCOORD_2": 9
          },
          "indices": 10,
          "material": 1,
          "mode": 4
        }
      ]
    },
    {
      "name": "polySurface4_phong1_0",
      "primitives": [
        {
          "attributes": {
            "NORMAL": 12,
            "POSITION": 11,
            "TANGENT": 13,
            "TEXCOORD_0": 14,
            "TEXCOORD_1": 15,
            "TEXCOORD_2": 16
          },
          "indices": 17,
          "material": 2,
          "mode": 4
        }
      ]
    },
    {
      "name": "pPlane1_blinn3_0",
      "primitives": [
        {
          "attributes": {
            "NORMAL": 19,
            "POSITION": 18,
            "TEXCOORD_0": 20
          },
          "indices": 21,
          "material": 3,
          "mode": 4
        }
      ]
    }
  ],
  "nodes": [
    {
      "children": [
        1
      ],
      "matrix": [
        0.21840733289718628,
        0.0,
        0.0,
        0.0,
        0.0,
        4.849616994588552e-17,
        -0.21840733289718628,
        0.0,
        0.0,
        0.21840733289718628,
        4.849616994588552e-17,
        0.0,
        0.0,
        0.0,
        0.0,
        1.0
      ],
      "name": "Sketchfab_model"
    },
    {
      "children": [
        2
      ],
      "matrix": [
        1.0,
        0.0,
        0.0,
        0.0,
        0.0,
        0.0,
        1.0,
        0.0,
        0.0,
        -1.0,
        0.0,
        0.0,
        0.0,
        0.0,
        0.0,
        1.0
      ],
      "name": "e46147b1a51447faa7cb493e282f72d7.fbx"
    },
    {
      "children": [
        3,
        5,
        10
      ],
      "name": "RootNode"
    },
    {
      "children": [
        4
      ],
      "name": "pCylinder2"
    },
    {
      "mesh": 0,
      "name": "pCylinder2_blinn1_0"
    },
    {
      "children": [
        6,
        8
      ],
      "matrix": [
        0.6417641274588983,
        -0.7669020828677666,
        0.0,
        0.0,
        0.7669020828677666,
        0.6417641274588983,
        0.0,
        0.0,
        0.0,
        0.0,
        1.0,
        0.0,
        -4.156308650970459,
        -1.771146535873413,
        0.0,
        1.0
      ],
      "name": "polySurface1"
    },
    {
      "children": [
        7
      ],
      "name": "polySurface3"
    },
    {
      "mesh": 1,
      "name": "polySurface3_blinn2_0"
    },
    {
      "children": [
        9
      ],
      "name": "polySurface4"
    },
    {
      "mesh": 2,
      "name": "polySurface4_phong1_0"
    },
    {
      "children": [
        11
      ],
      "matrix": [
        67.27838897705078,
        0.0,
        0.0,
        0.0,
        0.0,
        67.27838897705078,
        0.0,
        0.0,
        0.0,
        0.0,
        67.27838897705078,
        0.0,
        0.0,
        0.0,
        0.0,
        1.0
      ],
      "name": "pPlane1"
    },
    {
      "mesh": 3,
      "name": "pPlane1_blinn3_0"
    }
  ],
  "samplers": [
    {
      "magFilter": 9729,
      "minFilter": 9987,
      "wrapS": 10497,
      "wrapT": 10497
    }
  ],
  "scene": 0,
  "scenes": [
    {
      "name": "Sketchfab_Scene",
      "nodes": [
        0
      ]
    }
  ],
  "textures": [
    {
      "sampler": 0,
      "source": 0
    },
    {
      "sampler": 0,
      "source": 1
    },
    {
      "sampler": 0,
      "source": 2
    }
  ]
}
